
<svg xmlns="http://www.w3.org/2000/svg" viewBox="0 0 600 600">
  <rect fill="#0e1c38" width="600" height="600"/>
  <path fill="#f4f6fb" d="m180.47-20.05h32.45v416.09h256.4v29.27H180.47V-20.05Z"/>
  <g>
    <path fill="#f4f6fb" d="m298.96,546.95c-50.53,0-96.34-24.65-122.56-65.94l-2.05-3.23,26.61-29.18,3.55,5.32c23.45,35.17,56.11,53.76,94.45,53.76,28.41,0,48.89-7.85,62.59-24,13.83-16.3,20.84-41.86,20.84-75.98V127.68h-164.15v-39.27h206.59v319.29c0,45.75-10.74,80.79-31.92,104.12-21.15,23.3-52.76,35.12-93.97,35.12Z"/>
    <path fill="#0e1c38"  d="m419.84,93.41v314.29c0,89.71-41.35,134.24-120.88,134.24-48.35,0-92.89-23.54-118.34-63.62l19.72-21.63c24.18,36.26,58.53,55.99,98.61,55.99,59.17,0,88.44-33.72,88.44-104.98V122.68h-164.15v-29.27h196.59m10-10h-216.59v49.27h164.15v275.03c0,32.9-6.61,57.37-19.65,72.74-12.7,14.96-31.93,22.24-58.78,22.24-36.59,0-67.82-17.82-90.29-51.53l-7.09-10.64-8.62,9.45-19.72,21.63-5.15,5.65,4.1,6.45c27.14,42.74,74.53,68.26,126.78,68.26,42.67,0,75.53-12.37,97.67-36.76,22.04-24.29,33.21-60.45,33.21-107.48V83.41h0Z"/>
  </g>
</svg>